Coordinates
version=1
nRows=13
nColumns=63
inDegrees=yes

Units are S.I. units (second, meters, Newtons, ...)
If the header above contains a line with 'inDegrees', this indicates whether rotational values are in degrees (yes) or radians (no).

endheader
time	pelvis_tilt	pelvis_list	pelvis_rotation	pelvis_tx	pelvis_ty	pelvis_tz	hip_flexion_r	hip_adduction_r	hip_rotation_r	knee_angle_r	knee_angle_r_beta	ankle_angle_r	subtalar_angle_r	mtp_angle_r	hip_flexion_l	hip_adduction_l	hip_rotation_l	knee_angle_l	knee_angle_l_beta	ankle_angle_l	subtalar_angle_l	mtp_angle_l	L5_S1_Flex_Ext	L5_S1_Lat_Bending	L5_S1_axial_rotation	L4_L5_Flex_Ext	L4_L5_Lat_Bending	L4_L5_axial_rotation	L3_L4_Flex_Ext	L3_L4_Lat_Bending	L3_L4_axial_rotation	L2_L3_Flex_Ext	L2_L3_Lat_Bending	L2_L3_axial_rotation	L1_L2_Flex_Ext	L1_L2_Lat_Bending	L1_L2_axial_rotation	L1_T12_Flex_Ext	L1_T12_Lat_Bending	L1_T12_axial_rotation	Abs_r3	Abs_r2	Abs_r1	Abs_t1	Abs_t2	neck_flexion	neck_bending	neck_rotation	arm_flex_r	arm_add_r	arm_rot_r	elbow_flex_r	pro_sup_r	wrist_flex_r	wrist_dev_r	arm_flex_l	arm_add_l	arm_rot_l	elbow_flex_l	pro_sup_l	wrist_flex_l	wrist_dev_l
5.509804	-0.044036	-8.523865	111.701313	0.325765	0.570754	0.941857	11.817160	-8.199490	-16.035294	17.899611	0.312407	35.059300	15.569345	0.000000	8.847250	6.986497	-3.271348	8.460272	0.147660	26.882900	2.932580	0.000000	0.251228	-0.520171	0.195857	0.466555	-0.691828	0.208098	0.412742	-1.264744	0.208098	0.287128	-1.264744	0.171375	0.233290	-1.060733	0.159134	0.143551	-0.805745	0.146893	1.794493	-5.884280	1.089298	0.000000	0.000000	28.056328	3.059387	-0.558145	18.059347	-20.900556	84.026992	16.150203	47.385051	-4.913965	-3.207966	15.980745	-20.778659	151.029252	2.585367	10.573652	-4.601877	-3.675666
5.529412	0.142357	-8.646690	111.961384	0.326105	0.570336	0.942788	12.317033	-8.070701	-15.791954	18.232230	0.318212	35.465646	15.295612	0.000000	9.189884	6.813409	-3.660771	8.609968	0.150272	27.160352	3.688238	0.000000	0.252194	-0.525662	0.131194	0.468349	-0.699130	0.139394	0.414329	-1.278094	0.139394	0.288232	-1.278094	0.114795	0.234187	-1.071929	0.106595	0.144104	-0.814250	0.098396	1.801396	-5.946391	0.729664	0.000000	0.000000	28.060446	3.079655	-1.171345	18.263210	-22.048910	89.355383	15.032506	39.250856	-4.228204	-3.451208	14.539905	-23.291116	143.695223	3.142621	11.342368	-4.027178	-3.814936
5.549020	0.332418	-8.690457	112.336550	0.326133	0.569951	0.943652	12.675723	-7.928507	-15.660828	18.503564	0.322948	35.932693	15.069678	0.000000	9.440940	6.625320	-4.061867	8.759640	0.152885	27.485928	4.531847	0.000000	0.244354	-0.525629	0.062218	0.453789	-0.699086	0.066106	0.401449	-1.278013	0.066106	0.279272	-1.278013	0.054440	0.226907	-1.071862	0.050552	0.139624	-0.814199	0.046663	1.745393	-5.946016	0.346035	0.000000	0.000000	28.016197	3.016024	-1.832787	18.370359	-23.089978	94.318212	13.935611	31.061181	-3.396972	-3.624442	13.084053	-25.783995	133.761371	4.123356	13.782491	-3.851893	-3.965554
5.568627	0.507519	-8.661677	112.801379	0.325928	0.569621	0.944466	12.905081	-7.796109	-15.654400	18.739960	0.327074	36.433856	14.898328	0.000000	9.602978	6.438865	-4.464475	8.908548	0.155483	27.832524	5.432565	0.000000	0.227213	-0.522689	-0.008386	0.421957	-0.695177	-0.008910	0.373288	-1.270867	-0.008910	0.259682	-1.270867	-0.007338	0.210990	-1.065868	-0.006814	0.129830	-0.809646	-0.006289	1.622960	-5.912766	-0.046640	0.000000	0.000000	27.916770	2.862452	-2.550542	18.413940	-24.006250	98.797016	12.849928	23.152549	-2.459618	-3.711439	11.692750	-28.238312	121.440878	5.457884	18.318809	-4.049229	-3.900499
5.588235	0.688182	-8.553838	113.322662	0.325451	0.569425	0.945221	13.003440	-7.649077	-15.755457	18.927606	0.330349	36.912955	14.774290	0.000000	9.663482	6.248265	-4.670355	9.024785	0.157512	28.136144	6.097216	0.000000	0.202551	-0.512295	-0.076433	0.376158	-0.681353	-0.081210	0.332772	-1.245595	-0.081210	0.231496	-1.245595	-0.066879	0.188089	-1.044672	-0.062102	0.115738	-0.793545	-0.057325	1.446805	-5.795186	-0.425098	0.000000	0.000000	27.757985	2.610873	-3.276550	18.411567	-24.839413	102.702187	11.820825	15.990552	-1.504812	-3.761391	10.663200	-30.126252	114.291726	6.040597	18.572277	-4.145655	-4.207882
5.607843	0.839196	-8.398802	113.911776	0.324828	0.569357	0.945879	12.979932	-7.525249	-15.978328	19.060169	0.332663	37.358071	14.679279	0.000000	9.648849	6.081447	-4.804339	9.132657	0.159395	28.401981	6.718827	0.000000	0.171994	-0.502263	-0.150528	0.319410	-0.668010	-0.159936	0.282569	-1.221203	-0.159936	0.196572	-1.221203	-0.131712	0.159713	-1.024215	-0.122304	0.098277	-0.778006	-0.112896	1.228535	-5.681702	-0.837189	0.000000	0.000000	27.562059	2.331647	-3.995726	18.393335	-25.554572	105.943490	10.906381	9.783306	-0.594058	-3.759979	9.791588	-31.819967	107.978295	6.686604	18.873017	-4.272680	-4.199277
5.627451	0.954589	-8.220645	114.536175	0.324122	0.569413	0.946411	12.865537	-7.435232	-16.290559	19.146471	0.334169	37.758310	14.625361	0.000000	9.574822	5.947201	-4.885062	9.223918	0.160988	28.606444	7.276165	0.000000	0.139042	-0.494536	-0.232705	0.258214	-0.657733	-0.247249	0.228432	-1.202415	-0.247249	0.158911	-1.202415	-0.203617	0.129114	-1.008458	-0.189073	0.079448	-0.766036	-0.174529	0.993161	-5.594289	-1.294236	0.000000	0.000000	27.341688	2.072919	-4.658378	18.372291	-26.154989	108.312085	10.196595	4.714876	0.225249	-3.690363	9.064245	-33.326868	102.720316	7.396191	19.240889	-4.361128	-3.965798
5.647059	1.034624	-8.035691	115.167030	0.323371	0.569571	0.946816	12.679747	-7.380451	-16.678864	19.179868	0.334752	38.107697	14.617071	0.000000	9.458388	5.850089	-4.912091	9.302001	0.162351	28.744841	7.739091	0.000000	0.105239	-0.489478	-0.316180	0.195440	-0.651006	-0.335942	0.172898	-1.190118	-0.335942	0.120278	-1.190118	-0.276658	0.097725	-0.998144	-0.256896	0.060134	-0.758202	-0.237135	0.751715	-5.537077	-1.758500	0.000000	0.000000	27.123781	1.823111	-5.283097	18.317080	-26.658407	109.665998	9.725465	1.041882	0.871349	-3.598610	8.493561	-34.635483	98.722489	8.098830	19.661933	-4.437863	-3.614620
5.666667	1.079171	-7.869065	115.741475	0.322646	0.569788	0.947095	12.471713	-7.362587	-17.070980	19.177336	0.334708	38.407914	14.655738	0.000000	9.327074	5.793387	-4.916547	9.366849	0.163482	28.813500	8.080027	0.000000	0.074781	-0.486890	-0.390819	0.138875	-0.647563	-0.415246	0.122857	-1.183824	-0.415246	0.085467	-1.183824	-0.341967	0.069441	-0.992866	-0.317541	0.042730	-0.754192	-0.293115	0.534151	-5.507795	-2.173621	0.000000	0.000000	26.906482	1.582782	-5.820195	18.220748	-27.068830	109.986893	9.462602	-0.878740	1.169271	-3.537311	8.072345	-35.703909	96.015665	8.725184	19.928306	-4.471531	-3.299772
5.686275	1.113634	-7.706728	116.239991	0.321933	0.570051	0.947274	12.239351	-7.347105	-17.451512	19.127882	0.333845	38.639467	14.741855	0.000000	9.179178	5.746279	-4.896263	9.415559	0.164333	28.815086	8.306793	0.000000	0.047325	-0.481269	-0.453261	0.087887	-0.640088	-0.481590	0.077750	-1.170157	-0.481590	0.054087	-1.170157	-0.396603	0.043946	-0.981404	-0.368275	0.027041	-0.745486	-0.339946	0.338035	-5.444211	-2.520901	0.000000	0.000000	26.701052	1.348226	-6.166412	18.064307	-27.433036	109.175073	9.423213	-0.869054	1.098214	-3.444892	7.773597	-36.467984	94.458432	9.200513	19.868374	-4.569118	-3.074448
5.705882	1.121495	-7.597760	116.660039	0.321315	0.570290	0.947358	12.043237	-7.369652	-17.800782	19.072988	0.332886	38.826386	14.849482	0.000000	9.056573	5.742902	-4.810266	9.446763	0.164877	28.747991	8.389704	0.000000	0.027992	-0.477269	-0.505794	0.051984	-0.634768	-0.537406	0.045988	-1.160432	-0.537406	0.031992	-1.160432	-0.442570	0.025993	-0.973247	-0.410958	0.015995	-0.739290	-0.379346	0.199944	-5.398964	-2.813076	0.000000	0.000000	26.513462	1.151410	-6.356898	17.784164	-27.740827	106.871481	9.643963	1.091746	0.706402	-3.300296	7.755340	-37.062150	96.794262	9.640599	16.864781	-4.972794	-3.131736
5.725490	1.135692	-7.510634	116.987195	0.320738	0.570513	0.947403	11.860927	-7.384056	-18.116922	18.989378	0.331427	38.939265	14.985787	0.000000	8.956016	5.742759	-4.647669	9.477430	0.165412	28.632172	8.315081	0.000000	0.014638	-0.468078	-0.543358	0.027184	-0.622544	-0.577318	0.024048	-1.138085	-0.577318	0.016729	-1.138085	-0.475438	0.013592	-0.954505	-0.441478	0.008364	-0.725053	-0.407518	0.104555	-5.294991	-3.021993	0.000000	0.000000	26.334300	0.949840	-6.324258	17.358248	-28.045129	102.792021	10.122729	4.894218	0.228712	-2.978113	7.817764	-37.279439	98.864206	9.859037	14.801081	-5.359442	-3.243747
5.745098	1.150396	-7.440664	117.221581	0.320249	0.570797	0.947381	11.684487	-7.386994	-18.384495	18.874663	0.329425	38.968130	15.113277	0.000000	8.852522	5.749131	-4.384853	9.464211	0.165182	28.466588	8.105614	0.000000	0.007370	-0.456140	-0.572584	0.013688	-0.606666	-0.608371	0.012109	-1.109059	-0.608371	0.008424	-1.109059	-0.501011	0.006844	-0.930161	-0.465225	0.004211	-0.706561	-0.429438	0.052647	-5.159947	-3.184543	0.000000	0.000000	26.139096	0.758413	-6.135440	17.345840	-28.027716	103.121159	9.926169	4.727814	0.146578	-3.199270	7.955512	-37.188622	100.162374	9.912755	13.997116	-5.682568	-3.522727
